<svg xmlns="http://www.w3.org/2000/svg" viewBox="0 0 60.9 12.13">
  <g fill="#ffffff">
    <path d="M2.44,4.65c.5-.39.91-.65,1.26-.78.34-.13.77-.19,1.29-.19.72,0,1.36.15,1.92.46.56.31.95.71,1.16,1.22.22-.48.62-.88,1.2-1.2.58-.32,1.19-.48,1.82-.48.98,0,1.69.27,2.15.82.45.55.68,1.42.68,2.61v4.81h-2.69v-4.05c0-.73-.11-1.25-.33-1.55-.22-.3-.59-.45-1.11-.45-.65,0-1.17.26-1.57.78l-.07,5.27h-2.65v-4.37c0-.64-.11-1.08-.33-1.33-.22-.25-.6-.37-1.16-.37-.64,0-1.09.12-1.36.37v5.7H0V3.89h2.26l.18.76Z"/>
    <path d="M21.63,11.92h-2.14l-.18-.73c-.59.63-1.34.94-2.25.94-1.78,0-2.67-.88-2.67-2.64,0-.86.37-1.53,1.1-2,.79-.51,1.97-.76,3.54-.76h.02v-.02c0-.44-.07-.72-.22-.86-.15-.14-.46-.2-.93-.2-.83,0-1.56.25-2.19.74-.25-.41-.5-.87-.76-1.38.7-.51,1.32-.86,1.87-1.05.55-.19,1.18-.29,1.9-.29.91,0,1.62.32,2.14.97.52.64.78,1.52.78,2.64v4.63ZM18.96,8.3c-.57,0-1.03.11-1.39.32-.36.21-.54.49-.54.83v.02c.04.53.25.8.65.81h.04c.33,0,.62-.12.86-.34.24-.23.37-.5.38-.82v-.81Z"/>
    <path d="M25.35.51v11.41h-2.65V1.89l2.65-1.38Z"/>
    <path d="M33.15,11.92h-2.14l-.18-.73c-.59.63-1.34.94-2.25.94-1.78,0-2.67-.88-2.67-2.64,0-.86.37-1.53,1.1-2,.79-.51,1.97-.76,3.54-.76h.02v-.02c0-.44-.07-.72-.22-.86-.15-.14-.46-.2-.93-.2-.83,0-1.56.25-2.19.74-.25-.41-.5-.87-.76-1.38.7-.51,1.32-.86,1.87-1.05.55-.19,1.18-.29,1.9-.29.91,0,1.62.32,2.14.97.52.64.78,1.52.78,2.64v4.63ZM30.48,8.3c-.57,0-1.03.11-1.39.32-.36.21-.54.49-.54.83v.02c.04.53.25.8.65.81h.04c.33,0,.62-.12.86-.34.24-.23.37-.5.38-.82v-.81Z"/>
    <path d="M36.65,4.65c.5-.39.91-.65,1.26-.78.34-.13.77-.19,1.29-.19.72,0,1.36.15,1.92.46.56.31.95.71,1.16,1.22.22-.48.62-.88,1.2-1.2.58-.32,1.18-.48,1.82-.48.98,0,1.69.27,2.15.82.45.55.68,1.42.68,2.61v4.81h-2.69v-4.05c0-.73-.11-1.25-.33-1.55-.22-.3-.59-.45-1.11-.45-.65,0-1.17.26-1.57.78l-.07,5.27h-2.65v-4.37c0-.64-.11-1.08-.33-1.33-.22-.25-.6-.37-1.16-.37-.64,0-1.09.12-1.36.37v5.7h-2.65V3.89h2.26l.18.76Z"/>
    <path d="M49.05,1.63v-.04c0-.44.15-.81.44-1.12.29-.31.65-.47,1.08-.47.45,0,.83.15,1.14.46.31.31.47.68.47,1.13v.04c0,.99-.54,1.51-1.61,1.56-1.01-.07-1.52-.59-1.52-1.56ZM51.98,3.89v8.03h-2.69V3.89h2.69Z"/>
    <path d="M53.19,1.98l2.65-1.47v4.37c.04-.13.17-.3.41-.5.24-.21.48-.37.73-.49.37-.16.7-.25.99-.25,1.05,0,1.8.28,2.26.83.45.55.68,1.47.68,2.76v4.69h-2.65v-4.6c0-.96-.41-1.43-1.24-1.43-.55,0-.94.14-1.17.42v5.61h-2.65V1.98Z"/>
    <polygon points="14.78 3.63 17.78 1.16 18.23 2.45 15.27 3.84 14.78 3.63"/>
    <polygon points="26.31 3.56 29.32 1.08 29.76 2.37 26.81 3.77 26.31 3.56"/>
  </g>
</svg>
